<?xml version="1.0" encoding="UTF-8"?>
<svg xmlns="http://www.w3.org/2000/svg" viewBox="0 0 1080 1350">
  <defs>
    <style>
      .cls-1 {
        fill: #e396cd;
      }

      .cls-2 {
        fill: #3064b7;
      }

      .cls-3 {
        fill: #60bc8c;
      }

      .cls-4 {
        fill: #4778d4;
      }

      .cls-5 {
        fill: #3064b7;
        opacity: .5;
      }
    </style>
  </defs>
  <g id="Layer_6" data-name="Layer 6">
    <rect class="cls-4" width="1080" height="1350"/>
    <g>
      <path class="cls-2" d="M563.56,80.02c42.35,0,71.5,9.35,86.9,18.7-.55,47.3-5.5,70.95-30.25,70.95-14.85,0-30.8-8.25-58.3-8.25-17.6,0-34.1,5.5-36.85,7.15-7.7,19.8-13.2,55-13.2,85.8,0,74.25,16.5,101.2,48.95,101.2,3.85,0,8.8-.55,11.55-1.65v-69.3h-29.7c-2.75-9.9-4.95-21.45-4.95-31.9,0-29.7,10.45-40.7,43.45-40.7h72.05v197.45c-20.35,14.3-56.1,27.5-102.85,27.5-101.2,0-135.85-64.9-135.85-182.6s47.85-174.35,149.05-174.35Z"/>
      <g>
        <rect class="cls-1" x="415.49" y="121.8" width="16" height="266"/>
        <rect class="cls-1" x="441.49" y="121.8" width="16" height="266"/>
        <rect class="cls-1" x="467.49" y="121.8" width="16" height="266"/>
        <rect class="cls-1" x="493.49" y="121.8" width="16" height="266"/>
        <rect class="cls-1" x="519.49" y="121.8" width="16" height="266"/>
        <rect class="cls-1" x="545.49" y="121.8" width="16" height="266"/>
        <rect class="cls-1" x="571.49" y="121.8" width="16" height="266"/>
        <rect class="cls-1" x="597.49" y="121.8" width="16" height="266"/>
        <rect class="cls-1" x="623.49" y="121.8" width="16" height="266"/>
        <rect class="cls-1" x="649.49" y="121.8" width="16" height="266"/>
      </g>
    </g>
    <g>
      <path class="cls-2" d="M321.31,508.07c14.3-3.85,38.5-7.15,57.2-7.15,36.85,0,47.3,6.05,51.7,53.9l19.25,180.4h7.15l26.4-228.25c18.7-3.3,41.25-5.5,61.05-5.5,49.5,0,61.6,6.6,68.75,52.8l25.3,180.95h6.6l20.35-232.1h93.5l-58.85,345.95h-117.7l-35.2-243.65h-6.05l-35.2,243.65h-123.75l-60.5-341Z"/>
      <g>
        <g>
          <rect class="cls-3" x="326.69" y="537.4" width="16" height="266"/>
          <rect class="cls-3" x="352.69" y="537.4" width="16" height="266"/>
          <rect class="cls-3" x="378.69" y="537.4" width="16" height="266"/>
          <rect class="cls-3" x="404.69" y="537.4" width="16" height="266"/>
          <rect class="cls-3" x="430.69" y="537.4" width="16" height="266"/>
          <rect class="cls-3" x="456.69" y="537.4" width="16" height="266"/>
          <rect class="cls-3" x="482.69" y="537.4" width="16" height="266"/>
          <rect class="cls-3" x="508.69" y="537.4" width="16" height="266"/>
          <rect class="cls-3" x="534.69" y="537.4" width="16" height="266"/>
          <rect class="cls-3" x="560.69" y="537.4" width="16" height="266"/>
        </g>
        <g>
          <rect class="cls-3" x="508.69" y="537.4" width="16" height="266"/>
          <rect class="cls-3" x="534.69" y="537.4" width="16" height="266"/>
          <rect class="cls-3" x="560.69" y="537.4" width="16" height="266"/>
          <rect class="cls-3" x="586.69" y="537.4" width="16" height="266"/>
          <rect class="cls-3" x="612.69" y="537.4" width="16" height="266"/>
          <rect class="cls-3" x="638.69" y="537.4" width="16" height="266"/>
          <rect class="cls-3" x="664.69" y="537.4" width="16" height="266"/>
          <rect class="cls-3" x="690.69" y="537.4" width="16" height="266"/>
          <rect class="cls-3" x="716.69" y="537.4" width="16" height="266"/>
          <rect class="cls-3" x="742.69" y="537.4" width="16" height="266"/>
        </g>
      </g>
    </g>
    <g>
      <path class="cls-2" d="M563.56,913.02c42.35,0,71.5,9.35,86.9,18.7-.55,47.3-5.5,70.95-30.25,70.95-14.85,0-30.8-8.25-58.3-8.25-17.6,0-34.1,5.5-36.85,7.15-7.7,19.8-13.2,55-13.2,85.8,0,74.25,16.5,101.2,48.95,101.2,3.85,0,8.8-.55,11.55-1.65v-69.3h-29.7c-2.75-9.9-4.95-21.45-4.95-31.9,0-29.7,10.45-40.7,43.45-40.7h72.05v197.45c-20.35,14.3-56.1,27.5-102.85,27.5-101.2,0-135.85-64.9-135.85-182.6s47.85-174.35,149.05-174.35Z"/>
      <g>
        <rect class="cls-1" x="415.49" y="954.8" width="16" height="266"/>
        <rect class="cls-1" x="441.49" y="954.8" width="16" height="266"/>
        <rect class="cls-1" x="467.49" y="954.8" width="16" height="266"/>
        <rect class="cls-1" x="493.49" y="954.8" width="16" height="266"/>
        <rect class="cls-1" x="519.49" y="954.8" width="16" height="266"/>
        <rect class="cls-1" x="545.49" y="954.8" width="16" height="266"/>
        <rect class="cls-1" x="571.49" y="954.8" width="16" height="266"/>
        <rect class="cls-1" x="597.49" y="954.8" width="16" height="266"/>
        <rect class="cls-1" x="623.49" y="954.8" width="16" height="266"/>
        <rect class="cls-1" x="649.49" y="954.8" width="16" height="266"/>
      </g>
    </g>
  </g>
  <g id="Layer_5" data-name="Layer 5">
    <path class="cls-5" d="M1080,375.03c-4.06-5-8.23-9.93-12.51-14.77-136.05-155.46-34.84-251.51-237.49-261.25l-253-59c-114.49-8.18-182,35-320,106-30.67,15.78-31,16-93.94,77.06-34.78,33.75-64.36,63.61-78.62,108.48-27.18,90.4-51.61,199.11,8.82,280.13,38.06,51.11,86.47,155.14,139.74,188.33,164.61,100.71,379.34,80.08,574,81,45.01,1.52,96.15,10.28,141,15,59.65,6.22,86.7,51.57,132,91.31V375.03Z"/>
  </g>
</svg>
