<?xml version="1.0" encoding="UTF-8"?>
<svg xmlns="http://www.w3.org/2000/svg" viewBox="0 0 1920 1080">
  <defs>
    <style>
      .cls-1 {
        fill: #e396cd;
      }

      .cls-2 {
        fill: #3064b7;
      }

      .cls-3 {
        fill: #60bc8c;
      }

      .cls-4 {
        fill: #4778d4;
      }

      .cls-5 {
        fill: #3064b7;
        opacity: .5;
      }
    </style>
  </defs>
  <g id="Layer_4" data-name="Layer 4">
    <rect class="cls-4" x="-1" width="1920" height="1080"/>
    <g>
      <path class="cls-2" d="M1450.06,328.22c42.35,0,71.5,9.35,86.9,18.7-.55,47.3-5.5,70.95-30.25,70.95-14.85,0-30.8-8.25-58.3-8.25-17.6,0-34.1,5.5-36.85,7.15-7.7,19.8-13.2,55-13.2,85.8,0,74.25,16.5,101.2,48.95,101.2,3.85,0,8.8-.55,11.55-1.65v-69.3h-29.7c-2.75-9.9-4.95-21.45-4.95-31.9,0-29.7,10.45-40.7,43.45-40.7h72.05v197.45c-20.35,14.3-56.1,27.5-102.85,27.5-101.2,0-135.85-64.9-135.85-182.6s47.85-174.35,149.05-174.35Z"/>
      <g>
        <rect class="cls-1" x="1302" y="370" width="16" height="266"/>
        <rect class="cls-1" x="1328" y="370" width="16" height="266"/>
        <rect class="cls-1" x="1354" y="370" width="16" height="266"/>
        <rect class="cls-1" x="1380" y="370" width="16" height="266"/>
        <rect class="cls-1" x="1406" y="370" width="16" height="266"/>
        <rect class="cls-1" x="1432" y="370" width="16" height="266"/>
        <rect class="cls-1" x="1458" y="370" width="16" height="266"/>
        <rect class="cls-1" x="1484" y="370" width="16" height="266"/>
        <rect class="cls-1" x="1510" y="370" width="16" height="266"/>
        <rect class="cls-1" x="1536" y="370" width="16" height="266"/>
      </g>
    </g>
    <g>
      <path class="cls-2" d="M522.23,329.22c42.35,0,71.5,9.35,86.9,18.7-.55,47.3-5.5,70.95-30.25,70.95-14.85,0-30.8-8.25-58.3-8.25-17.6,0-34.1,5.5-36.85,7.15-7.7,19.8-13.2,55-13.2,85.8,0,74.25,16.5,101.2,48.95,101.2,3.85,0,8.8-.55,11.55-1.65v-69.3h-29.7c-2.75-9.9-4.95-21.45-4.95-31.9,0-29.7,10.45-40.7,43.45-40.7h72.05v197.45c-20.35,14.3-56.1,27.5-102.85,27.5-101.2,0-135.85-64.9-135.85-182.6s47.85-174.35,149.05-174.35Z"/>
      <g>
        <rect class="cls-1" x="373" y="370" width="16" height="266"/>
        <rect class="cls-1" x="399" y="370" width="16" height="266"/>
        <rect class="cls-1" x="425" y="370" width="16" height="266"/>
        <rect class="cls-1" x="451" y="370" width="16" height="266"/>
        <rect class="cls-1" x="477" y="370" width="16" height="266"/>
        <rect class="cls-1" x="503" y="370" width="16" height="266"/>
        <rect class="cls-1" x="529" y="370" width="16" height="266"/>
        <rect class="cls-1" x="555" y="370" width="16" height="266"/>
        <rect class="cls-1" x="581" y="370" width="16" height="266"/>
        <rect class="cls-1" x="607" y="370" width="16" height="266"/>
      </g>
    </g>
    <g>
      <path class="cls-2" d="M741.12,340.67c14.3-3.85,38.5-7.15,57.2-7.15,36.85,0,47.3,6.05,51.7,53.9l19.25,180.4h7.15l26.4-228.25c18.7-3.3,41.25-5.5,61.05-5.5,49.5,0,61.6,6.6,68.75,52.8l25.3,180.95h6.6l20.35-232.1h93.5l-58.85,345.95h-117.7l-35.2-243.65h-6.05l-35.2,243.65h-123.75l-60.5-341Z"/>
      <g>
        <g>
          <rect class="cls-3" x="746.5" y="370" width="16" height="266"/>
          <rect class="cls-3" x="772.5" y="370" width="16" height="266"/>
          <rect class="cls-3" x="798.5" y="370" width="16" height="266"/>
          <rect class="cls-3" x="824.5" y="370" width="16" height="266"/>
          <rect class="cls-3" x="850.5" y="370" width="16" height="266"/>
          <rect class="cls-3" x="876.5" y="370" width="16" height="266"/>
          <rect class="cls-3" x="902.5" y="370" width="16" height="266"/>
          <rect class="cls-3" x="928.5" y="370" width="16" height="266"/>
          <rect class="cls-3" x="954.5" y="370" width="16" height="266"/>
          <rect class="cls-3" x="980.5" y="370" width="16" height="266"/>
        </g>
        <g>
          <rect class="cls-3" x="928.5" y="370" width="16" height="266"/>
          <rect class="cls-3" x="954.5" y="370" width="16" height="266"/>
          <rect class="cls-3" x="980.5" y="370" width="16" height="266"/>
          <rect class="cls-3" x="1006.5" y="370" width="16" height="266"/>
          <rect class="cls-3" x="1032.5" y="370" width="16" height="266"/>
          <rect class="cls-3" x="1058.5" y="370" width="16" height="266"/>
          <rect class="cls-3" x="1084.5" y="370" width="16" height="266"/>
          <rect class="cls-3" x="1110.5" y="370" width="16" height="266"/>
          <rect class="cls-3" x="1136.5" y="370" width="16" height="266"/>
          <rect class="cls-3" x="1162.5" y="370" width="16" height="266"/>
        </g>
      </g>
    </g>
  </g>
  <g id="Layer_5" data-name="Layer 5">
    <path class="cls-5" d="M625.3,96.15c-114.49-8.18-230.03-4-343.03,16.72-33.89,6.37-69.35,14.34-99.2,31.19-42.42,23.43-64.36,63.61-78.62,108.48-27.18,90.4-51.61,199.11,8.82,280.13,38.06,51.11,96.05,82.8,149.32,115.98,164.61,100.71,339.82,192.6,534.48,193.52,45.01,1.52,90.12,1.12,134.97,5.83,61.49,6.41,124.29,23.38,172.19,63.94,26.2,21.47,46.58,50.98,72.92,71.44,27.12,21.65,61.53,28.11,96.1,24.9,131.66-14.16,254.58-90.89,331.16-197.17,36.8-51.03,24.45-70.49-36.04-78.76-58.15-9.01-116.41-17.61-174.54-26.88-34.79-5.89-70.31-12.54-98.64-33.32-12.65-9.23-23.16-20.96-31.64-34.13-15.98-24.98-25.32-53.68-35.08-81.62-33.14-98.5-72.28-197.45-140.99-275.15-136.05-155.46-358.54-185.7-561.19-195.45"/>
  </g>
</svg>
